<svg width="131" height="32" viewBox="0 0 131 32" fill="none" xmlns="http://www.w3.org/2000/svg">
<g clip-path="url(#clip0_1_17)">
<path d="M63.5684 8C65.2279 8 66.5598 8.54587 67.5642 9.63761C68.5686 10.7076 69.0708 12.1159 69.0708 13.8627V24.6054H64.6165V13.8627C64.6165 13.2513 64.4746 12.7709 64.1907 12.4216C63.9069 12.0504 63.5357 11.8648 63.0771 11.8648H61.6688C61.0574 11.8648 60.5225 12.0941 60.0639 12.5526C59.6054 12.9893 59.3215 13.5788 59.2124 14.3212V24.6054H54.7581V13.8954C54.7581 13.2841 54.6161 12.7928 54.3323 12.4216C54.0484 12.0504 53.6773 11.8648 53.2187 11.8648H51.9414C51.3082 11.8648 50.7514 12.1487 50.271 12.7164C49.7907 13.2841 49.485 14.0265 49.354 14.9435V24.6054H44.8997V8.26202H49.0264V10.1617C49.4195 9.5066 49.9217 8.98257 50.533 8.58954C51.1663 8.19652 51.7995 8 52.4327 8H54.2668C55.0528 8 55.7625 8.20743 56.3957 8.62229C57.0507 9.03716 57.5638 9.61578 57.935 10.3582C58.4154 9.61578 58.9831 9.03716 59.6382 8.62229C60.315 8.20743 61.0247 8 61.767 8H63.5684ZM78.656 24.8674C77.2804 24.8674 76.0576 24.6054 74.9877 24.0814C73.9396 23.5355 73.1208 22.7713 72.5313 21.7887C71.9636 20.8061 71.6797 19.6707 71.6797 18.3825V14.5505C71.6797 13.2622 71.9745 12.1268 72.564 11.1443C73.1536 10.1398 73.9724 9.36468 75.0205 8.81881C76.0904 8.27294 77.3131 8 78.6887 8H81.6364C83.012 8 84.2238 8.27294 85.2719 8.81881C86.3418 9.36468 87.1715 10.1398 87.7611 11.1443C88.3506 12.1268 88.6454 13.2622 88.6454 14.5505V18.3825C88.6454 19.6707 88.3506 20.8061 87.7611 21.7887C87.1715 22.7713 86.3418 23.5355 85.2719 24.0814C84.2238 24.6054 83.0011 24.8674 81.6037 24.8674H78.656ZM81.5382 21.0354C82.346 21.0354 82.9902 20.7625 83.4705 20.2166C83.9509 19.6489 84.1911 18.9174 84.1911 18.0222V14.8453C84.1911 13.95 83.9509 13.2295 83.4705 12.6836C82.9902 12.1159 82.357 11.8321 81.5709 11.8321H78.7542C77.9682 11.8321 77.335 12.1159 76.8546 12.6836C76.3742 13.2295 76.134 13.95 76.134 14.8453V18.0222C76.134 18.9174 76.3742 19.6489 76.8546 20.2166C77.335 20.7625 77.9572 21.0354 78.7215 21.0354H81.5382ZM94.8793 16.3191L88.8857 8.26202H93.864L97.4668 13.1094L101.07 8.26202H106.048L100.054 16.3191L106.244 24.6054H101.266L97.4668 19.496L93.6675 24.6054H88.6892L94.8793 16.3191ZM112.422 24.8674C110.718 24.8674 109.343 24.4416 108.295 23.5901C107.247 22.7385 106.723 21.614 106.723 20.2166V19.0048C106.723 17.6292 107.269 16.5265 108.36 15.6968C109.452 14.8453 110.893 14.4195 112.684 14.4195H114.681C115.249 14.4195 115.861 14.4959 116.516 14.6487C117.171 14.8016 117.771 15.009 118.317 15.271V13.5679C118.317 13.022 118.131 12.5854 117.76 12.2578C117.411 11.9085 116.941 11.7338 116.352 11.7338H113.535C112.924 11.7338 112.432 11.8757 112.061 12.1596C111.69 12.4434 111.504 12.8255 111.504 13.3059H107.181C107.181 11.712 107.76 10.4346 108.917 9.47385C110.096 8.49129 111.635 8 113.535 8H116.352C118.273 8 119.824 8.51312 121.003 9.53936C122.182 10.5438 122.771 11.8866 122.771 13.5679V24.6054H118.644V22.6403C118.12 23.3171 117.476 23.863 116.712 24.2779C115.948 24.6709 115.195 24.8674 114.452 24.8674H112.422ZM114.78 21.4612C115.588 21.4612 116.308 21.2538 116.941 20.8389C117.575 20.424 118.033 19.8672 118.317 19.1685V18.6117C117.968 18.3497 117.476 18.1423 116.843 17.9894C116.232 17.8366 115.577 17.7602 114.878 17.7602H112.815C112.291 17.7602 111.865 17.8912 111.537 18.1532C111.21 18.4152 111.046 18.7646 111.046 19.2013V20.0528C111.046 20.4677 111.221 20.8061 111.57 21.0682C111.941 21.3302 112.422 21.4612 113.011 21.4612H114.78ZM128.077 24.9329C127.269 24.9329 126.614 24.6927 126.111 24.2124C125.631 23.7102 125.391 23.0551 125.391 22.2472C125.391 21.4393 125.631 20.7952 126.111 20.3149C126.614 19.8127 127.269 19.5616 128.077 19.5616C128.885 19.5616 129.529 19.8127 130.009 20.3149C130.511 20.7952 130.762 21.4393 130.762 22.2472C130.762 23.0551 130.511 23.7102 130.009 24.2124C129.529 24.6927 128.885 24.9329 128.077 24.9329Z" fill="#161513"/>
<path fill-rule="evenodd" clip-rule="evenodd" d="M17.1429 0H14.8571V10.1205L11.0659 0.736931L8.94666 1.59318L12.8361 11.2198L5.49442 3.87816L3.87818 5.49442L10.9148 12.5311L1.79586 8.5469L0.880734 10.6414L10.5297 14.8571H0V17.1429H10.5297L0.880738 21.3586L1.79586 23.4531L10.9148 19.469L3.87818 26.5056L5.49442 28.1218L12.8361 20.7802L8.94666 30.4069L11.0659 31.263L14.8571 21.8795V32H17.1429V21.8795L20.9341 31.263L23.0533 30.4069L19.164 20.7802L26.5056 28.1218L28.1218 26.5056L21.0851 19.469L30.2042 23.4531L31.1192 21.3586L21.4704 17.1429H32V14.8571H21.4702L31.1192 10.6414L30.2042 8.5469L21.0851 12.5311L28.1218 5.4944L26.5056 3.87816L19.164 11.2198L23.0533 1.59318L20.9341 0.736931L17.1429 10.1205V0Z" fill="#E94D35"/>
</g>
<defs>
<clipPath id="clip0_1_17">
<rect width="131" height="32" fill="white"/>
</clipPath>
</defs>
</svg>
