<svg xmlns="http://www.w3.org/2000/svg" xmlns:xlink="http://www.w3.org/1999/xlink"><defs>
<clipPath id="clip0_1_17">
<rect width="131" height="32" fill="white"/>
</clipPath>
</defs><symbol id="instagram" viewBox="0 0 16 16">
<path d="M8 5.75098C7.4033 5.75098 6.831 5.98803 6.409 6.41C5.98705 6.8319 5.75 7.4042 5.75 8.001C5.75 8.5977 5.98705 9.17 6.409 9.592C6.831 10.0139 7.4033 10.251 8 10.251C8.5967 10.251 9.169 10.0139 9.591 9.592C10.0129 9.17 10.25 8.5977 10.25 8.001C10.25 7.4042 10.0129 6.8319 9.591 6.41C9.169 5.98803 8.5967 5.75098 8 5.75098ZM8 4.25098C8.9946 4.25098 9.9484 4.64606 10.6517 5.34933C11.3549 6.0526 11.75 7.0064 11.75 8.001C11.75 8.9955 11.3549 9.9494 10.6517 10.6526C9.9484 11.3559 8.9946 11.751 8 11.751C7.0054 11.751 6.0516 11.3559 5.34835 10.6526C4.64509 9.9494 4.25 8.9955 4.25 8.001C4.25 7.0064 4.64509 6.0526 5.34835 5.34933C6.0516 4.64606 7.0054 4.25098 8 4.25098ZM12.875 4.06348C12.875 4.31212 12.7762 4.55057 12.6004 4.72639C12.4246 4.9022 12.1861 5.00098 11.9375 5.00098C11.6889 5.00098 11.4504 4.9022 11.2746 4.72639C11.0988 4.55057 11 4.31212 11 4.06348C11 3.81484 11.0988 3.57638 11.2746 3.40056C11.4504 3.22475 11.6889 3.12598 11.9375 3.12598C12.1861 3.12598 12.4246 3.22475 12.6004 3.40056C12.7762 3.57638 12.875 3.81484 12.875 4.06348ZM8 2.00098C6.1445 2.00098 5.8415 2.00623 4.97825 2.04448C4.39025 2.07223 3.99575 2.15098 3.62975 2.29348C3.30425 2.41948 3.0695 2.57023 2.81975 2.82073C2.58501 3.04753 2.40451 3.32441 2.29175 3.63073C2.14925 3.99823 2.0705 4.39198 2.0435 4.97923C2.0045 5.80723 2 6.0967 2 8.001C2 9.8565 2.00525 10.1595 2.0435 11.0227C2.07125 11.61 2.15 12.0052 2.29175 12.3705C2.41925 12.6967 2.56925 12.9315 2.81825 13.1805C3.071 13.4325 3.30575 13.5832 3.62825 13.7077C3.99875 13.851 4.39325 13.9305 4.97825 13.9575C5.80625 13.9965 6.0957 14.001 8 14.001C9.8555 14.001 10.1585 13.9957 11.0217 13.9575C11.6082 13.9297 12.0035 13.851 12.3695 13.7092C12.6943 13.5825 12.9305 13.4317 13.1795 13.1827C13.4323 12.93 13.583 12.6952 13.7075 12.3727C13.85 12.003 13.9295 11.6077 13.9565 11.0227C13.9955 10.1947 14 9.9052 14 8.001C14 6.1455 13.9947 5.84248 13.9565 4.97923C13.9287 4.39273 13.85 3.99673 13.7075 3.63073C13.5945 3.32473 13.4143 3.04795 13.1802 2.82073C12.9535 2.58586 12.6766 2.40535 12.3702 2.29273C12.0027 2.15023 11.6082 2.07148 11.0217 2.04448C10.1937 2.00548 9.9043 2.00098 8 2.00098ZM8 0.500977C10.0378 0.500977 10.292 0.508477 11.0915 0.545977C11.8902 0.583477 12.434 0.708727 12.9125 0.894727C13.4075 1.08523 13.8245 1.34323 14.2415 1.75948C14.6229 2.1344 14.918 2.58792 15.1063 3.08848C15.2915 3.56623 15.4175 4.11073 15.455 4.90948C15.4903 5.70898 15.5 5.96323 15.5 8.001C15.5 10.0387 15.4925 10.293 15.455 11.0925C15.4175 11.8912 15.2915 12.435 15.1063 12.9135C14.9185 13.4143 14.6233 13.8679 14.2415 14.2425C13.8665 14.6237 13.413 14.9188 12.9125 15.1072C12.4347 15.2925 11.8902 15.4185 11.0915 15.456C10.292 15.4912 10.0378 15.501 8 15.501C5.96225 15.501 5.708 15.4935 4.9085 15.456C4.10975 15.4185 3.566 15.2925 3.0875 15.1072C2.58674 14.9193 2.13315 14.6242 1.7585 14.2425C1.37705 13.8676 1.08195 13.4141 0.89375 12.9135C0.70775 12.4357 0.5825 11.8912 0.545 11.0925C0.50975 10.293 0.5 10.0387 0.5 8.001C0.5 5.96323 0.5075 5.70898 0.545 4.90948C0.5825 4.10998 0.70775 3.56698 0.89375 3.08848C1.08143 2.58761 1.3766 2.13397 1.7585 1.75948C2.13325 1.3779 2.58682 1.08277 3.0875 0.894727C3.566 0.708727 4.109 0.583477 4.9085 0.545977C5.708 0.510727 5.96225 0.500977 8 0.500977Z">
</path></symbol><symbol id="linkedin" viewBox="0 0 13 12">
<path d="M2.67576 1.3349C2.67558 1.68851 2.53446 2.02755 2.28343 2.27746C2.03241 2.52737 1.69204 2.66767 1.33721 2.6675C0.98238 2.66732 0.64216 2.52668 0.39138 2.27652C0.14061 2.02636 -0.000179828 1.68717 1.72385e-07 1.33357C0.000180172 0.979967 0.1413 0.640917 0.39233 0.391007C0.64336 0.141097 0.98372 0.000796735 1.33855 0.000976735C1.69338 0.00114674 2.0336 0.141787 2.28438 0.391947C2.53515 0.642107 2.67594 0.981297 2.67576 1.3349ZM2.7159 3.65477H0.0401403V12.001H2.7159V3.65477ZM6.9436 3.65477H4.2812V12.001H6.9168V7.6212C6.9168 5.1814 10.1077 4.9547 10.1077 7.6212V12.001H12.75V6.7146C12.75 2.6015 8.0273 2.75482 6.9168 4.7747L6.9436 3.65477Z">
</path></symbol><symbol id="logo" viewBox="0 0 131 32">
<g clip-path="url(#clip0_1_17)">
<path d="M63.5684 8C65.2279 8 66.5598 8.54587 67.5642 9.63761C68.5686 10.7076 69.0708 12.1159 69.0708 13.8627V24.6054H64.6165V13.8627C64.6165 13.2513 64.4746 12.7709 64.1907 12.4216C63.9069 12.0504 63.5357 11.8648 63.0771 11.8648H61.6688C61.0574 11.8648 60.5225 12.0941 60.0639 12.5526C59.6054 12.9893 59.3215 13.5788 59.2124 14.3212V24.6054H54.7581V13.8954C54.7581 13.2841 54.6161 12.7928 54.3323 12.4216C54.0484 12.0504 53.6773 11.8648 53.2187 11.8648H51.9414C51.3082 11.8648 50.7514 12.1487 50.271 12.7164C49.7907 13.2841 49.485 14.0265 49.354 14.9435V24.6054H44.8997V8.26202H49.0264V10.1617C49.4195 9.5066 49.9217 8.98257 50.533 8.58954C51.1663 8.19652 51.7995 8 52.4327 8H54.2668C55.0528 8 55.7625 8.20743 56.3957 8.62229C57.0507 9.03716 57.5638 9.61578 57.935 10.3582C58.4154 9.61578 58.9831 9.03716 59.6382 8.62229C60.315 8.20743 61.0247 8 61.767 8H63.5684ZM78.656 24.8674C77.2804 24.8674 76.0576 24.6054 74.9877 24.0814C73.9396 23.5355 73.1208 22.7713 72.5313 21.7887C71.9636 20.8061 71.6797 19.6707 71.6797 18.3825V14.5505C71.6797 13.2622 71.9745 12.1268 72.564 11.1443C73.1536 10.1398 73.9724 9.36468 75.0205 8.81881C76.0904 8.27294 77.3131 8 78.6887 8H81.6364C83.012 8 84.2238 8.27294 85.2719 8.81881C86.3418 9.36468 87.1715 10.1398 87.7611 11.1443C88.3506 12.1268 88.6454 13.2622 88.6454 14.5505V18.3825C88.6454 19.6707 88.3506 20.8061 87.7611 21.7887C87.1715 22.7713 86.3418 23.5355 85.2719 24.0814C84.2238 24.6054 83.0011 24.8674 81.6037 24.8674H78.656ZM81.5382 21.0354C82.346 21.0354 82.9902 20.7625 83.4705 20.2166C83.9509 19.6489 84.1911 18.9174 84.1911 18.0222V14.8453C84.1911 13.95 83.9509 13.2295 83.4705 12.6836C82.9902 12.1159 82.357 11.8321 81.5709 11.8321H78.7542C77.9682 11.8321 77.335 12.1159 76.8546 12.6836C76.3742 13.2295 76.134 13.95 76.134 14.8453V18.0222C76.134 18.9174 76.3742 19.6489 76.8546 20.2166C77.335 20.7625 77.9572 21.0354 78.7215 21.0354H81.5382ZM94.8793 16.3191L88.8857 8.26202H93.864L97.4668 13.1094L101.07 8.26202H106.048L100.054 16.3191L106.244 24.6054H101.266L97.4668 19.496L93.6675 24.6054H88.6892L94.8793 16.3191ZM112.422 24.8674C110.718 24.8674 109.343 24.4416 108.295 23.5901C107.247 22.7385 106.723 21.614 106.723 20.2166V19.0048C106.723 17.6292 107.269 16.5265 108.36 15.6968C109.452 14.8453 110.893 14.4195 112.684 14.4195H114.681C115.249 14.4195 115.861 14.4959 116.516 14.6487C117.171 14.8016 117.771 15.009 118.317 15.271V13.5679C118.317 13.022 118.131 12.5854 117.76 12.2578C117.411 11.9085 116.941 11.7338 116.352 11.7338H113.535C112.924 11.7338 112.432 11.8757 112.061 12.1596C111.69 12.4434 111.504 12.8255 111.504 13.3059H107.181C107.181 11.712 107.76 10.4346 108.917 9.47385C110.096 8.49129 111.635 8 113.535 8H116.352C118.273 8 119.824 8.51312 121.003 9.53936C122.182 10.5438 122.771 11.8866 122.771 13.5679V24.6054H118.644V22.6403C118.12 23.3171 117.476 23.863 116.712 24.2779C115.948 24.6709 115.195 24.8674 114.452 24.8674H112.422ZM114.78 21.4612C115.588 21.4612 116.308 21.2538 116.941 20.8389C117.575 20.424 118.033 19.8672 118.317 19.1685V18.6117C117.968 18.3497 117.476 18.1423 116.843 17.9894C116.232 17.8366 115.577 17.7602 114.878 17.7602H112.815C112.291 17.7602 111.865 17.8912 111.537 18.1532C111.21 18.4152 111.046 18.7646 111.046 19.2013V20.0528C111.046 20.4677 111.221 20.8061 111.57 21.0682C111.941 21.3302 112.422 21.4612 113.011 21.4612H114.78ZM128.077 24.9329C127.269 24.9329 126.614 24.6927 126.111 24.2124C125.631 23.7102 125.391 23.0551 125.391 22.2472C125.391 21.4393 125.631 20.7952 126.111 20.3149C126.614 19.8127 127.269 19.5616 128.077 19.5616C128.885 19.5616 129.529 19.8127 130.009 20.3149C130.511 20.7952 130.762 21.4393 130.762 22.2472C130.762 23.0551 130.511 23.7102 130.009 24.2124C129.529 24.6927 128.885 24.9329 128.077 24.9329Z" fill="#161513"/>
<path fill-rule="evenodd" clip-rule="evenodd" d="M17.1429 0H14.8571V10.1205L11.0659 0.736931L8.94666 1.59318L12.8361 11.2198L5.49442 3.87816L3.87818 5.49442L10.9148 12.5311L1.79586 8.5469L0.880734 10.6414L10.5297 14.8571H0V17.1429H10.5297L0.880738 21.3586L1.79586 23.4531L10.9148 19.469L3.87818 26.5056L5.49442 28.1218L12.8361 20.7802L8.94666 30.4069L11.0659 31.263L14.8571 21.8795V32H17.1429V21.8795L20.9341 31.263L23.0533 30.4069L19.164 20.7802L26.5056 28.1218L28.1218 26.5056L21.0851 19.469L30.2042 23.4531L31.1192 21.3586L21.4704 17.1429H32V14.8571H21.4702L31.1192 10.6414L30.2042 8.5469L21.0851 12.5311L28.1218 5.4944L26.5056 3.87816L19.164 11.2198L23.0533 1.59318L20.9341 0.736931L17.1429 10.1205V0Z" fill="#E94D35"/>
</g>

</symbol><symbol id="star-16" viewBox="0 0 40 40">
<path fill-rule="evenodd" clip-rule="evenodd" d="M21.4286 0H18.5714V12.6506L13.8324 0.921164L11.1833 1.99147L16.0451 14.0248L6.86802 4.8477L4.84772 6.86802L13.6435 15.6638L2.24482 10.6836L1.10092 13.3018L13.1621 18.5714H0V21.4286H13.1621L1.10092 26.6982L2.24482 29.3164L13.6435 24.3362L4.84772 33.132L6.86802 35.1522L16.0451 25.9752L11.1833 38.0086L13.8324 39.0788L18.5714 27.3494V40H21.4286V27.3494L26.1676 39.0788L28.8166 38.0086L23.955 25.9752L33.132 35.1522L35.1522 33.132L26.3564 24.3362L37.7552 29.3164L38.899 26.6982L26.838 21.4286H40V18.5714H26.8378L38.899 13.3018L37.7552 10.6836L26.3564 15.6638L35.1522 6.868L33.132 4.8477L23.955 14.0248L28.8166 1.99147L26.1676 0.921164L21.4286 12.6506V0Z" fill="#E94D35"/>
</symbol><symbol id="star-16f" viewBox="0 0 40 40">
<path fill-rule="evenodd" clip-rule="evenodd" d="M21.4286 0H18.5714V12.6506L13.8324 0.921164L11.1833 1.99147L16.0451 14.0248L6.86802 4.8477L4.84772 6.86802L13.6435 15.6638L2.24482 10.6836L1.10092 13.3018L13.1621 18.5714H0V21.4286H13.1621L1.10092 26.6982L2.24482 29.3164L13.6435 24.3362L4.84772 33.132L6.86802 35.1522L16.0451 25.9752L11.1833 38.0086L13.8324 39.0788L18.5714 27.3494V40H21.4286V27.3494L26.1676 39.0788L28.8166 38.0086L23.955 25.9752L33.132 35.1522L35.1522 33.132L26.3564 24.3362L37.7552 29.3164L38.899 26.6982L26.838 21.4286H40V18.5714H26.8378L38.899 13.3018L37.7552 10.6836L26.3564 15.6638L35.1522 6.868L33.132 4.8477L23.955 14.0248L28.8166 1.99147L26.1676 0.921164L21.4286 12.6506V0Z">
</path></symbol><symbol id="star-8" viewBox="0 0 20 20">
<path d="M10 0L11.3777 6.67403L17.0711 2.92893L13.326 8.62234L20 10L13.326 11.3777L17.0711 17.0711L11.3777 13.326L10 20L8.62234 13.326L2.92893 17.0711L6.67403 11.3777L0 10L6.67403 8.62234L2.92893 2.92893L8.62234 6.67403L10 0Z" fill="#E94D35"/>
</symbol><symbol id="twiter" viewBox="0 0 16 14">
<path d="M15.6215 2.24316C15.0489 2.49643 14.4417 2.66277 13.82 2.73666C14.4753 2.34474 14.9658 1.72792 15.2 1.00116C14.585 1.36716 13.9108 1.62366 13.208 1.76241C12.736 1.25735 12.1103 0.922383 11.4282 0.809603C10.7462 0.696823 10.046 0.812533 9.43647 1.13875C8.82697 1.46497 8.34227 1.98342 8.05777 2.61351C7.77337 3.24359 7.70507 3.95 7.86347 4.62291C6.61627 4.5604 5.39623 4.2363 4.28244 3.67166C3.16866 3.10702 2.18607 2.31445 1.39848 1.34541C1.1197 1.82425 0.973199 2.36858 0.973979 2.92266C0.973979 4.01016 1.52748 4.97091 2.36898 5.53344C1.87099 5.51774 1.38395 5.38324 0.948479 5.14114V5.18014C0.948629 5.90444 1.19926 6.60634 1.65786 7.16694C2.11647 7.72754 2.75484 8.11224 3.46473 8.25594C3.00244 8.38114 2.51771 8.39964 2.04723 8.30994C2.24738 8.93334 2.63748 9.47854 3.16292 9.86924C3.68836 10.2599 4.32283 10.4765 4.97748 10.4886C4.32684 10.9996 3.58186 11.3774 2.78514 11.6003C1.98842 11.8231 1.15557 11.8868 0.334229 11.7876C1.768 12.7097 3.43705 13.1992 5.14173 13.1976C10.9115 13.1976 14.0668 8.41794 14.0668 4.27266C14.0668 4.13766 14.063 4.00116 14.057 3.86766C14.6712 3.42379 15.2012 2.87393 15.6223 2.24391L15.6215 2.24316Z">
</path></symbol></svg>